#!OML:ASF E:\emotionWalksFemale\Project 1\Capture day 1\Session 1\Female1.ASF
:FULLY-SPECIFIED
:DEGREES
256
root 11.0005 15.8091 19.6411 366.038 179.361 -355.944
lowerback 14.4013 2.12627 -1.18521
upperback -4.33368 2.56707 -0.715685
thorax -12.9381 1.26869 -0.772732
lowerneck -7.96364 -0.980685 -5.27814
upperneck 0.0174716 -1.35354 10.0351
head 1.5583 -0.594143 4.2335
rclavicle -9.54166e-015 9.54166e-015
rhumerus -29.9806 26.8979 -59.8416
rradius 74.0315
rwrist -3.73013
rhand -1.62282 -52.4739
rfingers 7.12502
rthumb 24.0351 -80.9889
lclavicle -9.54166e-015 9.54166e-015
lhumerus -17.1033 -11.5216 64.3364
lradius 40.2627
lwrist -15.5163
lhand 12.0018 -36.0368
lfingers 7.12502
lthumb 37.0224 -9.97811
rfemur -20.445 8.40204 20.0583
rtibia 28.3024
rfoot -8.12847 -16.0801
rtoes -15.6065
lfemur -22.4211 -1.46657 -18.6558
ltibia 45.264
lfoot -11.9882 10.996
ltoes -52.2587
257
root 10.9815 15.8557 19.6303 366.079 179.424 -355.962
lowerback 14.2471 2.10049 -0.950002
upperback -4.46969 2.58304 -0.731108
thorax -12.9894 1.25857 -0.924486
lowerneck -8.25943 -1.1029 -5.0967
upperneck 0.554784 -1.54892 9.92816
head 1.80273 -0.672522 4.15815
rclavicle 1.71949e-014 1.74931e-014
rhumerus -31.9852 26.7477 -61.6235
rradius 74.2377
rwrist -3.35976
rhand -1.96037 -51.8837
rfingers 7.12502
rthumb 23.7114 -80.4411
lclavicle 1.71949e-014 1.74931e-014
lhumerus -17.3751 -11.5381 65.7715
lradius 39.4771
lwrist -15.9334
lhand 12.4865 -35.7472
lfingers 7.12502
lthumb 37.4807 -9.80851
rfemur -19.6135 8.12543 20.5033
rtibia 27.7439
rfoot -8.87739 -15.9512
rtoes -16.2469
lfemur -22.1799 -3.48884 -17.9741
ltibia 44.0509
lfoot -13.2761 10.4593
ltoes -55.2494
258
root 10.9632 15.8912 19.6237 366.193 179.465 -356.008
lowerback 14.1944 2.10258 -0.812372
upperback -4.69949 2.62155 -0.726658
thorax -13.2169 1.26722 -1.01304
lowerneck -8.32644 -1.21719 -5.01342
upperneck 0.889029 -1.72121 9.87791
head 1.93858 -0.748324 4.12017
rclavicle -1.2275e-014 5.56597e-015
rhumerus -34.1152 26.6333 -63.4797
rradius 74.2564
rwrist -3.18503
rhand -2.34074 -51.5685
rfingers 7.12502
rthumb 23.3465 -80.1727
lclavicle -1.2275e-014 5.56597e-015
lhumerus -17.7681 -11.4855 67.2981
lradius 38.6029
lwrist -16.7008
lhand 12.6134 -35.6784
lfingers 7.12502
lthumb 37.6007 -9.77162
rfemur -19.004 7.62943 20.9748
rtibia 27.3663
rfoot -9.43119 -15.7648
rtoes -16.9535
lfemur -22.0546 -5.45737 -17.3447
ltibia 42.7401
lfoot -13.7921 10.7677
ltoes -56.7353
259
root 10.9454 15.9098 19.617 366.259 179.39 -355.995
lowerback 13.4961 2.06513 -0.664717
upperback -4.53412 2.61495 -0.642761
thorax -12.5989 1.2629 -0.965435
lowerneck -8.44819 -1.25641 -4.96798
upperneck 0.839554 -1.75856 9.66856
head 1.94239 -0.767339 4.03406
rclavicle -3.15074e-014 4.77083e-015
rhumerus -35.4114 26.4342 -65.084
rradius 74.0445
rwrist -3.09661
rhand -1.94024 -52.0858
rfingers 7.12502
rthumb 23.7307 -80.6407
lclavicle -3.15074e-014 4.77083e-015
lhumerus -17.8146 -10.8959 68.6521
lradius 37.7763
lwrist -17.7516
lhand 12.7817 -35.7408
lfingers 7.12502
lthumb 37.7597 -9.87663
rfemur -18.4244 7.22026 21.5076
rtibia 27.1333
rfoot -10.0113 -15.6035
rtoes -17.3447
lfemur -21.8862 -7.39835 -16.6689
ltibia 41.4499
lfoot -14.2089 12.1789
ltoes -57.3808
260
root 10.9267 15.9108 19.6119 366.366 179.363 -355.938
lowerback 13.1079 1.99093 -0.489186
upperback -4.60575 2.5681 -0.531358
thorax -12.4434 1.23683 -0.916764
lowerneck -8.4062 -1.22405 -4.95632
upperneck 0.995269 -1.71197 9.54273
head 1.97979 -0.740882 3.99042
rclavicle 6.90777e-015 1.03368e-014
rhumerus -37.1379 26.146 -66.7974
rradius 74.0099
rwrist -2.79199
rhand -1.1694 -52.9594
rfingers 7.12502
rthumb 24.4698 -81.4164
lclavicle 6.90777e-015 1.03368e-014
lhumerus -18.3652 -10.4622 69.9977
lradius 37.0101
lwrist -19.075
lhand 12.2208 -36.2083
lfingers 7.12502
lthumb 37.2295 -10.2036
rfemur -17.8875 6.86166 22.0506
rtibia 26.9987
rfoot -10.901 -15.4761
rtoes -16.5764
lfemur -21.8418 -9.56218 -15.8817
ltibia 40.2496
lfoot -14.7201 14.4181
ltoes -57.4862
261
root 10.9082 15.9053 19.608 366.544 179.415 -355.958
lowerback 12.9024 1.89874 -0.374116
upperback -4.83873 2.48557 -0.46575
thorax -12.5845 1.19611 -0.889708
lowerneck -8.2721 -1.15178 -4.88747
upperneck 1.24468 -1.63192 9.5061
head 2.02963 -0.696831 3.96969
rclavicle -3.30231e-014 -7.95139e-015
rhumerus -38.5043 25.9067 -68.5212
rradius 73.3833
rwrist -2.45909
rhand -0.513641 -53.0471
rfingers 7.12502
rthumb 25.0983 -81.4177
lclavicle -3.30231e-014 -7.95139e-015
lhumerus -19.1538 -10.7185 71.3086
lradius 36.1705
lwrist -20.3352
lhand 10.6384 -36.8429
lfingers 7.12502
lthumb 35.7316 -10.4609
rfemur -17.4487 6.54464 22.4999
rtibia 26.9085
rfoot -11.5593 -15.486
rtoes -15.5602
lfemur -21.9675 -11.7755 -15.1267
ltibia 39.1534
lfoot -15.2084 16.063
ltoes -57.0561
262
root 10.8888 15.8909 19.6007 366.697 179.335 -356.035
lowerback 12.6218 1.84882 -0.317535
upperback -5.02845 2.44657 -0.429129
thorax -12.6315 1.1802 -0.867589
lowerneck -8.13372 -1.1082 -4.67053
upperneck 1.46556 -1.59095 9.27337
head 2.06577 -0.674829 3.8473
rclavicle -2.13694e-015 6.36111e-015
rhumerus -40.039 25.6896 -70.2609
rradius 72.7749
rwrist -1.97229
rhand -0.0808921 -52.0465
rfingers 7.12502
rthumb 25.5129 -80.3583
lclavicle -2.13694e-015 6.36111e-015
lhumerus -19.9606 -11.6084 72.6699
lradius 35.9376
lwrist -19.9097
lhand 11.1887 -36.2234
lfingers 7.12502
lthumb 36.2529 -9.96944
rfemur -17.0344 6.34943 22.8585
rtibia 26.8533
rfoot -11.862 -15.4859
rtoes -15.5837
lfemur -22.0371 -13.6323 -14.5145
ltibia 38.1436
lfoot -15.2809 17.5926
ltoes -56.8861
263
root 10.8682 15.8667 19.5923 366.802 179.056 -356.08
lowerback 12.1928 1.8374 -0.258298
upperback -5.12876 2.45842 -0.384566
thorax -12.4851 1.18953 -0.841432
lowerneck -8.0538 -1.03777 -4.27301
upperneck 1.78599 -1.52068 8.82464
head 2.13647 -0.636763 3.61676
rclavicle 1.65488e-014 5.56597e-015
rhumerus -41.5016 25.4349 -71.9797
rradius 72.225
rwrist -1.47757
rhand 0.0307535 -51.8808
rfingers 7.12502
rthumb 25.6198 -80.1774
lclavicle 1.65488e-014 5.56597e-015
lhumerus -20.5597 -11.839 73.9203
lradius 35.3043
lwrist -20.6774
lhand 9.57617 -36.7509
lfingers 7.12502
lthumb 34.7242 -10.1309
rfemur -16.6354 6.1153 23.2353
rtibia 26.8088
rfoot -12.1124 -15.2398
rtoes -15.9756
lfemur -21.9744 -15.0891 -13.9775
ltibia 37.1886
lfoot -15.0433 18.5105
ltoes -56.5802
264
root 10.8496 15.8362 19.5836 366.913 178.713 -356.154
lowerback 11.5987 1.83375 -0.248215
upperback -5.14314 2.47049 -0.329932
thorax -12.1425 1.2045 -0.767532
lowerneck -8.05798 -0.904351 -3.92879
upperneck 2.07518 -1.3581 8.39301
head 2.2078 -0.552393 3.40929
rclavicle 1.73937e-015 4.77083e-015
rhumerus -42.6531 25.0255 -73.5506
rradius 71.6147
rwrist -0.902964
rhand 0.380147 -52.2278
rfingers 7.12502
rthumb 25.9544 -80.4758
lclavicle 1.73937e-015 4.77083e-015
lhumerus -20.9151 -11.504 75.0232
lradius 34.5487
lwrist -21.5313
lhand 10.135 -36.9784
lfingers 7.12502
lthumb 35.2544 -10.4821
rfemur -16.2561 5.8107 23.6134
rtibia 26.7204
rfoot -12.2852 -15.0565
rtoes -15.9469
lfemur -21.8791 -16.2612 -13.5357
ltibia 36.3206
lfoot -14.4093 18.7159
ltoes -56.51
265
root 10.8348 15.7898 19.5759 366.979 178.337 -356.248
lowerback 10.9459 1.80206 -0.332576
upperback -5.07274 2.4332 -0.198738
thorax -11.6771 1.20609 -0.542528
lowerneck -8.07036 -0.6962 -3.86508
upperneck 2.24206 -1.07127 8.14718
head 2.24048 -0.407528 3.32648
rclavicle -1.30825e-014 -3.18055e-015
rhumerus -43.3811 24.7272 -74.8822
rradius 70.8237
rwrist -0.192344
rhand 1.02293 -51.9876
rfingers 7.12502
rthumb 26.5698 -80.1439
lclavicle -1.30825e-014 -3.18055e-015
lhumerus -21.4145 -11.1683 76.079
lradius 33.9751
lwrist -22.2796
lhand 12.1047 -36.6056
lfingers 7.12502
lthumb 37.1197 -10.5721
rfemur -15.749 5.60841 23.9857
rtibia 26.5016
rfoot -12.3294 -15.0718
rtoes -15.4133
lfemur -21.7478 -17.02 -13.2371
ltibia 35.5879
lfoot -13.8636 18.3455
ltoes -56.5535
266
root 10.8199 15.7283 19.5703 366.985 177.897 -356.356
lowerback 10.541 1.72693 -0.421755
upperback -5.09585 2.34245 -0.0400422
thorax -11.4698 1.18185 -0.288009
lowerneck -8.16836 -0.476438 -3.83866
upperneck 2.78649 -0.775151 7.86882
head 2.416 -0.249945 3.24735
rclavicle -1.35795e-014 -6.75868e-015
rhumerus -44.1182 24.7305 -76.2274
rradius 69.9805
rwrist 0.578384
rhand 1.48833 -51.8599
rfingers 7.12502
rthumb 27.0151 -79.9479
lclavicle -1.35795e-014 -6.75868e-015
lhumerus -22.1578 -10.8636 77.1094
lradius 33.4403
lwrist -23.1484
lhand 12.7197 -36.647
lfingers 7.12502
lthumb 37.701 -10.767
rfemur -15.056 5.45481 24.3347
rtibia 26.0245
rfoot -12.1439 -15.1535
rtoes -14.7799
lfemur -21.5407 -17.3144 -13.1385
ltibia 34.9995
lfoot -13.6267 17.8281
ltoes -56.3997
267
root 10.801 15.665 19.5612 366.915 177.332 -356.596
lowerback 10.4814 1.65395 -0.497882
upperback -5.3034 2.25364 0.0205152
thorax -11.6742 1.15334 -0.165464
lowerneck -8.16779 -0.288982 -3.68222
upperneck 3.53292 -0.53485 7.45003
head 2.64321 -0.121978 3.09573
rclavicle 4.03781e-015 -1.98785e-015
rhumerus -45.0951 24.8038 -77.7785
rradius 68.9928
rwrist 1.41128
rhand 1.52773 -51.79
rfingers 7.12502
rthumb 27.0528 -79.8722
lclavicle 4.03781e-015 -1.98785e-015
lhumerus -23.1157 -10.5945 78.0631
lradius 32.8549
lwrist -23.7559
lhand 12.8999 -37.0743
lfingers 7.12502
lthumb 37.8713 -11.2402
rfemur -14.1386 5.40907 24.4833
rtibia 25.2061
rfoot -13.7169 -15.2802
rtoes -10.0625
lfemur -21.0542 -17.2312 -13.404
ltibia 34.4954
lfoot -13.999 17.6274
ltoes -56.4147
268
root 10.7817 15.6012 19.5474 366.737 176.65 -356.881
lowerback 10.4882 1.60441 -0.556059
upperback -5.51499 2.19136 0.0109412
thorax -11.9203 1.13275 -0.136531
lowerneck -7.97274 -0.0573136 -3.32166
upperneck 4.09629 -0.249183 6.95721
head 2.76873 0.019843 2.87789
rclavicle -1.95919e-014 -4.77083e-015
rhumerus -45.9826 24.6354 -79.3844
rradius 67.7786
rwrist 2.45427
rhand 1.73444 -51.6276
rfingers 7.12502
rthumb 27.2506 -79.6789
lclavicle -1.95919e-014 -4.77083e-015
lhumerus -24.2314 -10.4749 78.8679
lradius 32.4425
lwrist -24.2734
lhand 13.6784 -37.1089
lfingers 7.12502
lthumb 38.6062 -11.4772
rfemur -13.0942 5.68568 24.4889
rtibia 24.1422
rfoot -15.4851 -16.0952
rtoes -6.37207
lfemur -20.1909 -16.8537 -13.9025
ltibia 33.9016
lfoot -15.0322 17.7578
ltoes -56.9225
269
root 10.7643 15.533 19.5321 366.491 175.953 -357.073
lowerback 11.3866 1.52108 -0.483597
upperback -6.17387 2.12592 0.00800114
thorax -13.2262 1.10376 -0.213632
lowerneck -7.61016 0.26692 -2.98831
upperneck 5.05176 0.132433 6.57149
head 2.99555 0.210645 2.71341
rclavicle -1.89094e-014 1.19271e-015
rhumerus -47.7257 24.3626 -81.2884
rradius 66.6434
rwrist 3.6977
rhand 1.94481 -51.4013
rfingers 7.12502
rthumb 27.4518 -79.4208
lclavicle -1.89094e-014 1.19271e-015
lhumerus -26.2271 -10.411 79.6294
lradius 32.3548
lwrist -25.131
lhand 14.7047 -36.9206
lfingers 7.12502
lthumb 39.5737 -11.5673
rfemur -12.0661 6.56684 24.4591
rtibia 22.99
rfoot -16.5937 -18.1667
rtoes -6.07686
lfemur -19.1078 -16.4306 -14.3822
ltibia 33.0638
lfoot -16.0556 18.3568
ltoes -57.594
270
root 10.7451 15.4723 19.517 366.18 175.22 -357.353
lowerback 11.1603 1.44415 -0.35069
upperback -6.09844 2.0424 0.0196609
thorax -12.9937 1.05357 -0.247623
lowerneck -7.26961 0.517512 -2.95797
upperneck 5.06229 0.654169 6.32074
head 2.9044 0.529901 2.64433
rclavicle -3.09359e-014 -8.34896e-015
rhumerus -48.1875 24.0106 -82.5928
rradius 65.3864
rwrist 4.97628
rhand 1.52209 -51.1697
rfingers 7.12502
rthumb 27.0474 -79.2528
lclavicle -3.09359e-014 -8.34896e-015
lhumerus -26.9874 -9.90907 80.2515
lradius 32.1186
lwrist -25.9493
lhand 14.8726 -36.898
lfingers 7.12502
lthumb 39.7317 -11.5916
rfemur -11.0752 8.30683 24.1851
rtibia 21.9059
rfoot -16.5893 -20.7386
rtoes -6.05869
lfemur -17.8307 -16.2235 -14.9837
ltibia 31.9268
lfoot -16.7923 19.4739
ltoes -57.8742
